<?xml version="1.0" encoding="iso-8859-1"?>
<!-- Generator: Adobe Illustrator 19.0.0, SVG Export Plug-In . SVG Version: 6.00 Build 0)  -->
<svg version="1.1" id="Layer_1" xmlns="http://www.w3.org/2000/svg" xmlns:xlink="http://www.w3.org/1999/xlink" x="0px" y="0px"
	 viewBox="0 0 482.462 482.462" style="enable-background:new 0 0 482.462 482.462;" xml:space="preserve">
<g>
	<g>
		<path d="M61.111,4.791C27.413,4.791,0,32.204,0,65.901c0,33.697,27.413,61.111,61.111,61.111
			c33.697,0,61.111-27.413,61.111-61.111C122.221,32.204,94.808,4.791,61.111,4.791z M61.111,107.32
			c-22.837,0-41.418-18.582-41.418-41.418s18.582-41.418,41.418-41.418s41.418,18.582,41.418,41.418S83.947,107.32,61.111,107.32z"
			/>
	</g>
</g>
<g>
	<g>
		<rect x="163.938" y="56.054" width="318.523" height="19.692"/>
	</g>
</g>
<g>
	<g>
		<path d="M61.111,180.123C27.413,180.123,0,207.536,0,241.233c0,33.692,27.413,61.106,61.111,61.106
			c33.697,0,61.111-27.414,61.111-61.106C122.221,207.536,94.808,180.123,61.111,180.123z M61.111,282.647
			c-22.837,0-41.418-18.577-41.418-41.413c0-22.837,18.582-41.418,41.418-41.418s41.418,18.582,41.418,41.418
			C102.529,264.07,83.947,282.647,61.111,282.647z"/>
	</g>
</g>
<g>
	<g>
		<rect x="163.938" y="231.385" width="318.523" height="19.692"/>
	</g>
</g>
<g>
	<g>
		<path d="M61.111,355.454C27.413,355.454,0,382.868,0,416.56c0,33.697,27.413,61.111,61.111,61.111
			c33.697,0,61.111-27.413,61.111-61.111C122.221,382.868,94.808,355.454,61.111,355.454z M61.111,457.978
			c-22.837,0-41.418-18.582-41.418-41.418s18.582-41.413,41.418-41.413s41.418,18.577,41.418,41.413S83.947,457.978,61.111,457.978z
			"/>
	</g>
</g>
<g>
	<g>
		<rect x="163.938" y="406.715" width="318.523" height="19.692"/>
	</g>
</g>
<g>
</g>
<g>
</g>
<g>
</g>
<g>
</g>
<g>
</g>
<g>
</g>
<g>
</g>
<g>
</g>
<g>
</g>
<g>
</g>
<g>
</g>
<g>
</g>
<g>
</g>
<g>
</g>
<g>
</g>
</svg>
